<svg xmlns="http://www.w3.org/2000/svg" viewBox="0 0 512 512" role="img" aria-label="KRH">
  <defs>
    <linearGradient id="krhGradient" x1="96" y1="64" x2="416" y2="448" gradientUnits="userSpaceOnUse">
      <stop offset="0" stop-color="#53d7b0"/>
      <stop offset="1" stop-color="#25c794"/>
    </linearGradient>
    <filter id="softShadow" x="-12%" y="-12%" width="124%" height="124%">
      <feDropShadow dx="0" dy="6" stdDeviation="7" flood-color="#0f8f70" flood-opacity="0.22"/>
    </filter>
  </defs>
  <g fill="url(#krhGradient)" filter="url(#softShadow)">
    <path d="M254 19c64 0 123 25 168 66 35 32 59 72 70 117l-45 13C425 129 348 65 257 65 151 65 65 151 65 257c0 50 19 95 50 130l-34 31C42 375 19 319 19 257 19 126 123 20 254 19Z"/>
    <path d="M477 306c-35 108-133 187-250 187-35 0-68-7-98-20l16-43c25 10 52 16 81 16 89 0 164-55 196-132l-93 24c-44 12-88 24-133 34-31 8-55 15-73 25 16-38 52-60 107-73 46-11 97-22 147-36 31-9 61-21 87-39 11-8 25-2 28 12 4 17-1 33-15 45Z"/>
    <circle cx="255" cy="195" r="46"/>
    <path d="M254 252c44 0 80 36 80 80v58H175v-58c0-44 35-80 79-80Z"/>
    <circle cx="139" cy="230" r="35"/>
    <path d="M139 274c33 0 60 27 60 60v78H79v-78c0-33 27-60 60-60Z"/>
    <circle cx="366" cy="230" r="35"/>
    <path d="M366 274c33 0 60 27 60 60v21c-29 9-58 17-86 24h-34v-45c0-33 27-60 60-60Z"/>
  </g>
</svg>
